<?xml version="1.0" encoding="UTF-8" standalone="no"?>
<!-- Generator: Adobe Illustrator 16.0.0, SVG Export Plug-In . SVG Version: 6.00 Build 0)  -->

<svg
   version="1.1"
   id="Layer_1"
   x="0px"
   y="0px"
   width="1000"
   height="363.15698"
   viewBox="0 0 1000 363.15698"
   enable-background="new 0 0 1000 371.126"
   xml:space="preserve"
   sodipodi:docname="Stranger_Things_II.svg"
   inkscape:version="1.1.2 (b8e25be833, 2022-02-05)"
   xmlns:inkscape="http://www.inkscape.org/namespaces/inkscape"
   xmlns:sodipodi="http://sodipodi.sourceforge.net/DTD/sodipodi-0.dtd"
   xmlns="http://www.w3.org/2000/svg"
   xmlns:svg="http://www.w3.org/2000/svg"><defs
   id="defs7" /><sodipodi:namedview
   id="namedview5"
   pagecolor="#ffffff"
   bordercolor="#666666"
   borderopacity="1.0"
   inkscape:pageshadow="2"
   inkscape:pageopacity="0.0"
   inkscape:pagecheckerboard="0"
   showgrid="false"
   inkscape:zoom="0.5"
   inkscape:cx="519"
   inkscape:cy="202"
   inkscape:window-width="1366"
   inkscape:window-height="705"
   inkscape:window-x="-8"
   inkscape:window-y="-8"
   inkscape:window-maximized="1"
   inkscape:current-layer="Layer_1" />

<path
   id="path16660"
   style="color:#000000;-inkscape-font-specification:'ITC Benguiat Std Bold';fill:#dd0301;stroke-width:0.932596;-inkscape-stroke:none"
   d="M 0,0 V 13.082031 H 975.9668 V 0 Z M 3.4082031,3.4082031 H 972.55859 v 6.265625 H 3.4082031 Z M 59.136719,25.828125 C 38.585954,25.828125 0.02219382,36.704381 0,86.423828 -0.01335675,116.34614 16.203111,128.55032 40.720703,137.88086 l 23.857422,9.31445 c 9.921192,3.95197 24.332031,7.69908 24.332031,23.22461 0,23.42946 -17.810215,27.63867 -33.873047,27.63867 -23.692915,0 -35.88794,-18.72872 -43.511718,-42.26171 H 3.5507812 L 0,220.66602 c 3.5432222,-4.23424 7.3228502,-6.46483 12.755859,-6.46485 4.48825,0 11.099762,1.69314 15.587891,2.82227 11.810912,2.54054 21.023194,4.23437 33.070312,4.23437 48.424628,0 78.191408,-21.76023 78.191408,-68.61914 0,-23.71173 -17.71506,-42.62637 -39.21094,-50.24805 L 72.753906,92.511719 C 64.01395,89.406603 48.518534,85.166887 48.1875,71.056641 47.809751,54.955367 62.595097,48.757812 74.169922,48.757812 c 15.733626,0 31.771288,13.861016 40.416018,29.947266 l 8.26367,-45.951172 c 0,0 -2.60515,2.024271 -9.82422,1.050782 -8.15453,-1.099652 -19.950524,-7.976563 -53.888671,-7.976563 z m 0,3.408203 c 16.738927,0 27.873202,1.68587 35.861328,3.492188 7.988133,1.806318 12.776483,3.806668 17.570313,4.453125 2.4214,0.32653 4.32593,0.304501 5.99414,0.164062 l -5.77734,32.115235 C 103.26821,55.974224 89.155102,45.349609 74.169922,45.349609 c -6.395494,0 -13.579317,1.640197 -19.425781,5.726563 -5.846474,4.086366 -10.176456,10.95755 -9.962891,20.060547 0.194567,8.293308 5.133104,14.075043 10.695312,17.642578 5.562219,3.567544 11.904317,5.439678 16.136719,6.943359 l 27.638672,9.876954 c 20.378197,7.22533 36.945317,25.02438 36.945317,47.03906 0,22.70798 -7.0493,38.66582 -19.71485,49.26953 -12.66557,10.60371 -31.366462,15.94336 -55.068358,15.94336 -11.726995,0 -20.593239,-1.63095 -32.351562,-4.16015 -4.472732,-1.12717 -11.000793,-2.89649 -16.306641,-2.89649 -3.3289228,0 -6.2863083,0.85126 -8.9296871,2.30274 l 2.9492187,-53.89258 h 2.3554688 c 3.7871426,11.07942 8.6326496,21.20567 15.6093746,28.84375 7.478097,8.18697 17.55264,13.41797 30.296875,13.41797 8.329055,0 17.384043,-1.00296 24.748047,-5.54102 7.363994,-4.53807 12.533203,-12.92783 12.533203,-25.50586 0,-8.8169 -4.466551,-14.95978 -9.908203,-18.74804 -5.441653,-3.78828 -11.792715,-5.73949 -16.570312,-7.64258 L 41.947266,134.70117 C 29.91683,130.12349 20.250805,124.92453 13.701172,117.60156 7.1515373,110.27859 3.4018148,100.77118 3.4082031,86.425781 3.4188813,62.446866 12.459773,48.58543 23.880859,40.230469 35.301946,31.875516 49.462394,29.236328 59.136719,29.236328 Z m 633.867191,0.511719 c -2.37747,3.933784 -6.03333,6.11914 -10.05664,6.119141 -2.74324,0 -5.48724,-0.654922 -8.23047,-1.310547 -9.3269,-2.185436 -14.81333,-3.277344 -28.5293,-3.277344 -27.78353,0 -52.17595,12.750912 -62.30469,39.564453 v 59.5625 c 4.26728,12.51165 11.12936,23.8072 20.06055,31.99805 15.54489,14.20531 34.92895,16.17386 53.76562,16.17382 h 58.88672 v -5.46484 c -2.92612,-1.31126 -6.03303,-2.62244 -7.49609,-6.11914 -1.82873,-4.15232 -1.64647,-14.42446 -1.64649,-19.23242 v -25.35156 c 0,-11.5828 -1.46491,-24.475434 11.51954,-25.349613 v -5.464844 h -58.70313 v 5.464844 c 12.07013,0.655634 11.15625,12.238633 11.15625,22.947263 v 20.10547 c 0,5.24504 0.18091,12.23872 -2.01367,16.82813 -2.37747,5.24503 -8.04584,7.21289 -12.80078,7.21289 -25.96898,0 -37.49024,-35.18691 -37.49024,-61.41211 0,-27.099415 9.87549,-55.072268 36.02735,-55.072268 17.92226,0 33.10188,14.42269 39.68554,33.873047 l 3.83985,-0.654297 z m 124.1289,1.53125 c -3.47467,4.370864 -10.78928,3.496094 -15.36133,3.496094 h -83.02734 v 5.464843 c 7.49798,-0.218536 10.05859,6.555488 10.05859,21.853516 v 89.16602 c 0,15.29804 -2.56061,22.07205 -10.05859,21.85351 v 5.46484 h 90.70898 c 2.01153,0 4.02266,4.1e-4 5.85157,0.4375 2.0117,0.21853 3.65803,1.08978 5.12109,3.05665 l 15.54492,-56.81836 -3.83984,-1.75 c -9.69257,23.82121 -24.69097,40.65041 -48.09961,40.65039 -14.44759,0 -17.73828,-5.68202 -17.73828,-20.54297 V 96.185547 h 4.9375 c 9.14401,0 16.82472,-0.873458 23.95703,6.994143 1.33846,1.45415 2.55374,3.05523 3.65625,4.76758 l 7.24805,-0.86524 -5.46485,-37.697264 h -4.88281 c -2.00919,13.555519 -12.78859,12.376953 -23.59766,12.376953 h -5.85351 v -6.994141 c 0,-17.483465 -1.0961,-25.570312 16.82617,-25.570312 18.28802,0 34.01468,12.678257 39.31836,33.876953 l 4.02344,-1.53125 z m -690.41601,1.517578 -7.65625,42.566406 h 4.70703 c 5.59461,-16.649566 17.79784,-25.770526 33.66015,-26.173828 V 151.36328 c 0,16.16807 -2.62946,23.35357 -14.84375,23.57813 v 5.61523 h 68.2129 v -5.61523 c -12.21427,-0.22456 -14.84571,-7.41006 -14.84571,-23.57813 V 49.189453 c 16.49186,1.206593 26.64023,10.000399 33.17188,26.173828 h 5.06054 l -7.18554,-42.566406 z m 700.36132,1.138672 v 7.068359 c 9.69872,-0.282679 13.01172,8.481665 13.01172,28.269532 V 184.60742 c 0,19.78787 -3.31298,28.55221 -13.01172,28.26953 v 7.06641 h 74.27735 v -7.06641 c -9.69863,0.28268 -13.00977,-8.48166 -13.00977,-28.26953 v -49.4707 l 8.2793,-3.39063 c 9.93532,13.85151 33.58975,54.55708 33.58984,71.80079 0,7.63246 -4.25853,9.04738 -9.69922,9.33007 v 7.06641 H 1000 v -7.06641 c -10.40852,0 -15.14006,-13.28771 -17.74219,-23.18164 -8.2794,-30.24717 -22.00085,-58.51542 -39.50586,-78.58593 15.6125,-9.61124 33.5918,-25.15833 33.5918,-48.621099 0,-11.307347 -5.44157,-19.504411 -13.7207,-24.027343 -8.9891,-4.240255 -19.39718,-4.242703 -29.09571,-4.525391 z M 646.18359,34.6875 c 13.5316,0 18.46992,1.010593 27.75196,3.185547 2.74062,0.655093 5.72861,1.402344 9.00781,1.402344 2.65948,0 5.20263,-0.774929 7.44726,-2.148438 l 3.8125,34.404297 c -8.1616,-15.916153 -22.31271,-27.269531 -39.05859,-27.269531 -14.29074,0 -24.64806,7.997958 -30.80273,19.132812 -6.15466,11.134863 -8.63086,25.384075 -8.63086,39.347659 0,13.61152 2.9164,29.35242 9.375,42.08203 6.4586,12.72961 16.99815,22.73633 31.52148,22.73633 5.68436,0 12.79199,-2.39835 15.88672,-9.17969 2.79163,-5.86572 2.33594,-13.11003 2.33594,-18.26758 v -20.10547 c 0,-5.25742 0.34589,-11.02416 -1.19336,-16.21289 -0.76958,-2.59437 -2.10755,-5.117351 -4.35352,-6.992186 -0.91656,-0.76513 -2.0414,-1.305783 -3.20117,-1.798828 h 47.03125 c -1.37614,0.580252 -2.65183,1.284112 -3.69531,2.21875 -2.31638,2.074785 -3.63285,4.816274 -4.37305,7.630864 -1.4804,5.6292 -1.0039,11.90876 -1.0039,17.55664 v 25.35156 c 0,2.36095 -0.048,6.20028 0.14257,10.03125 0.1896,3.81984 0.44847,7.48932 1.78711,10.54687 1.60444,3.80202 4.57663,5.53227 7.21485,6.8086 v 0.0215 h -55.48047 c -18.59774,0 -36.84416,-1.92102 -51.46289,-15.27734 -8.31083,-7.62299 -14.83199,-18.2724 -18.95117,-30.13086 V 71.580078 C 597.0139,46.468955 619.61961,34.6875 646.18359,34.6875 Z m -414.52148,0.08789 v 5.464843 c 7.49809,-0.218535 10.05859,6.555487 10.05859,21.853516 v 89.16602 c 0,15.29804 -2.5605,22.07205 -10.05859,21.85351 v 5.46484 h 57.42383 v -5.46484 c -7.49808,0.21854 -10.05664,-6.55547 -10.05664,-21.85351 v -38.2461 l 6.40039,-2.62109 c 7.68095,10.70863 25.96875,42.17862 25.96875,55.50976 0,5.90067 -3.29176,6.99239 -7.49805,7.21094 v 5.46484 h 79.35938 v -5.46484 c -4.93773,-0.65563 -8.41016,-2.84039 -8.41016,-9.61523 0,-4.80794 2.19053,-13.11372 3.4707,-17.70313 l 6.58594,-22.29101 c 10.2413,-0.65565 19.20275,2.62184 27.61523,9.61523 7.1324,5.68213 15.36133,16.60974 15.36133,27.31836 0,7.43047 -4.2084,12.23869 -10.06054,12.67578 v 5.46484 h 88.04492 v -5.46484 c -7.49808,0.21854 -9.875,-6.55547 -9.875,-21.85351 V 60.783203 l 54.31445,74.740237 c 5.48637,7.43048 10.79102,14.64273 10.79102,25.13281 0,7.43047 -3.4759,11.36432 -9.32813,12.45703 v 5.2461 h 36.75977 v -5.4629 c -7.49808,0.21854 -10.0586,-6.55743 -10.0586,-21.85546 V 62.09375 c 0,-15.298029 2.56052,-22.072051 10.0586,-21.853516 v -5.464843 h -36.75977 v 5.464843 c 7.49807,-0.218535 11.15625,6.555487 11.15625,21.853516 V 89.630859 L 542.80859,60.126953 c -2.37737,-3.278159 -7.31445,-9.39691 -7.31445,-13.986328 0,-3.496695 2.19551,-5.026213 4.75586,-5.900391 v -5.464843 h -69.86133 v 5.464843 c 7.49808,-0.218535 10.0586,6.555487 10.0586,21.853516 v 89.16602 c 0,10.40888 -1.18906,16.8642 -4.3086,19.86328 -5.94418,-4.48953 -8.17354,-15.25409 -10.40039,-22.70508 -12.61869,-44.58283 -28.5293,-99.873775 -28.5293,-102.714845 0,-3.71524 1.46185,-5.025802 4.20508,-5.462891 v -5.464843 h -53.39844 v 5.464843 c 2.56037,0.437089 4.02344,2.184731 4.02344,5.462891 0,3.059606 -2.19301,9.178265 -3.10742,11.800781 L 360.2168,148.19922 c -1.68697,4.88051 -3.47243,10.25996 -5.98047,14.82031 -1.09496,-2.59635 -1.95005,-5.34325 -2.60352,-7.82812 -6.40078,-23.38413 -17.00988,-45.23734 -30.54297,-60.75391 12.07004,-7.43047 25.97071,-19.450745 25.97071,-37.589844 0,-8.741737 -4.20647,-15.077533 -10.60743,-18.574218 -6.94941,-3.27815 -14.99607,-3.279511 -22.49414,-3.498047 z m -102.09766,1.429687 h 94.55469 L 229.5,68.083984 C 222.45206,54.795387 211.59765,46.917611 196.19922,45.791016 l -3.65625,-0.267578 V 151.36328 c 0,8.26882 0.51619,14.57308 3.28711,19.45117 1.76217,3.10221 4.65727,5.14526 8.21094,6.33399 h -54.70313 c 3.55367,-1.18873 6.44877,-3.23177 8.21094,-6.33399 2.77092,-4.87809 3.28711,-11.18235 3.28711,-19.45117 V 45.693359 l -3.49414,0.08984 c -14.29819,0.363536 -26.15894,7.718609 -33.17188,20.421875 z m 685.15039,0.720703 6.06641,32.689453 c -7.93173,-14.875003 -21.88828,-23.824218 -37.66211,-23.824218 -4.73675,0 -8.45266,0.498868 -11.52734,1.810546 -3.07477,1.31167 -5.40442,3.624576 -6.69336,6.382813 -2.57788,5.516484 -2.01367,12.112753 -2.01367,20.783203 v 10.402344 h 9.26171 c 5.28073,0 10.92412,0.430154 16.1543,-1.273438 4.11779,-1.341278 7.68007,-4.575484 9.59375,-9.601562 l 4.32422,29.818358 -1.86523,0.22461 c -0.85165,-1.17949 -1.67042,-2.38736 -2.65235,-3.45508 -4.01474,-4.42375 -8.5798,-6.623106 -13.09179,-7.496091 -4.51582,-0.873712 -8.91532,-0.609375 -13.37891,-0.609375 h -8.3457 v 50.833986 c 0,7.68191 0.70328,13.6122 4.20117,17.97461 3.49798,4.36239 9.2749,5.97461 16.94531,5.97461 12.52076,1e-5 23.0729,-4.61334 31.48828,-12.2793 5.30312,-4.8308 9.72085,-10.92948 13.56445,-17.76367 l -10.67578,39.02148 c -0.87682,-0.36253 -1.74799,-0.77815 -2.65429,-0.88476 -2.24811,-0.48461 -4.38878,-0.48438 -6.30079,-0.48438 h -85.32031 c 2.39733,-1.22176 4.41483,-3.17387 5.56836,-5.79101 1.96144,-4.45017 2.50977,-10.28006 2.50977,-18.11914 V 62.09375 c 0,-7.839078 -0.54833,-13.668959 -2.50977,-18.119141 -1.15353,-2.617135 -3.17103,-4.569249 -5.56836,-5.791015 h 77.63867 c 2.06849,0 5.20836,0.247662 8.48438,-0.13086 1.44608,-0.167093 2.97643,-0.563918 4.45898,-1.126953 z m 15.77149,0.417969 h 102.97461 c 9.71794,0.282829 19.56173,0.404725 27.60547,4.162109 7.26166,4.000138 11.86914,10.80775 11.86914,20.982422 0,21.722134 -16.75885,36.357344 -31.96875,45.720699 l -3.42774,2.10938 2.64453,3.03125 c 17.04301,19.54082 30.61813,47.40206 38.78711,77.24609 1.33436,5.06926 3.19758,11.10509 6.33008,16.1875 2.5652,4.16215 6.37512,7.7249 11.29102,8.93946 v 0.8125 h -72.66797 v -0.67969 c 1.93159,-0.32732 3.84241,-0.86691 5.56055,-2.18945 2.67907,-2.06218 4.13867,-5.66922 4.13867,-10.11914 0,-10.17985 -6.19907,-24.48869 -13.43946,-38.71876 -7.24031,-14.22997 -15.64644,-27.89876 -20.78906,-35.06835 l -1.56836,-2.1875 -12.88867,5.27929 v 51.75586 c 0,10.08403 0.73373,17.53444 3.1582,23.03516 1.92199,4.36063 5.52162,7.25642 9.85157,8.2207 v 0.67188 h -67.46094 v -0.67188 c 4.33014,-0.96427 7.92958,-3.86006 9.85156,-8.2207 2.42447,-5.50072 3.1582,-12.95114 3.1582,-23.03516 V 69.273438 c 0,-10.084024 -0.73373,-17.536387 -3.1582,-23.03711 -1.92198,-4.360642 -5.52142,-7.256426 -9.85156,-8.220703 z m -593.4336,0.839844 h 76.8418 c 7.51654,0.218731 14.99579,0.338096 21.00195,3.134765 5.38191,2.972912 8.75586,7.921391 8.75586,15.529297 0,16.398371 -12.68198,27.506746 -24.34961,34.689453 l -3.42578,2.109375 2.64453,3.03125 c 13.07128,14.987016 23.53382,36.433246 29.82422,59.414066 l -0.008,-0.0332 c 0.68217,2.59383 1.57497,5.48051 2.75781,8.28516 l 2.73633,6.48437 3.38867,-6.16601 c 2.72401,-4.95315 4.5398,-10.49775 6.2168,-15.34961 l 0.0137,-0.043 28.72656,-90.736327 c 0.45333,-1.298733 1.23191,-3.479283 1.91797,-5.798828 0.69706,-2.356717 1.35157,-4.687375 1.35157,-7.03125 0,-2.146054 -0.49357,-4.2084 -1.75,-5.859375 -0.52704,-0.692537 -1.22076,-1.201794 -1.93555,-1.660156 h 45.7168 c -0.63974,0.383549 -1.29177,0.753565 -1.8086,1.371094 -1.40309,1.67649 -1.86914,3.843711 -1.86914,6.148437 0,0.972641 0.12234,1.189772 0.25586,1.828125 0.13351,0.638353 0.31544,1.427092 0.55078,2.384766 0.47065,1.915356 1.14826,4.497833 1.9961,7.65039 1.69568,6.305125 4.08024,14.880722 6.85937,24.761719 5.55827,19.761985 12.69037,44.730175 18.99805,67.015625 l 0.006,0.0273 0.008,0.0234 c 2.14754,7.18574 3.90186,18.62591 11.60937,24.44727 l 1.75977,1.32812 h -52.95313 c 5.02247,-2.45415 8.4004,-8.00018 8.4004,-14.73242 0,-12.43898 -8.82585,-23.73741 -16.61719,-29.95508 -8.91844,-7.40541 -18.90632,-11.08824 -29.98633,-10.3789 l -2.375,0.15234 -7.26758,24.59961 -0.006,0.0234 c -1.29561,4.64477 -3.59765,12.77581 -3.59765,18.61914 0,3.96948 1.12337,7.29684 3.36132,9.51953 0.96497,0.95838 2.06872,1.62756 3.22657,2.15234 h -68.47657 c 0.58637,-0.27374 1.19453,-0.40104 1.75196,-0.83008 2.28314,-1.75724 3.50195,-4.85374 3.50195,-8.4375 0,-8.2236 -4.85968,-19.24607 -10.47656,-30.28515 -5.61689,-11.03908 -12.11745,-21.61282 -16.13281,-27.21094 l -1.56836,-2.1875 -11.00782,4.50977 v 40.53125 c 0,7.83908 0.54638,13.66897 2.50782,18.11914 1.15353,2.61716 3.17098,4.56925 5.56836,5.79101 h -46.64454 c 2.39738,-1.22176 4.41484,-3.17385 5.56836,-5.79101 1.96145,-4.45017 2.50782,-10.28006 2.50782,-18.11914 V 62.09375 c 0,-7.839068 -0.54637,-13.66896 -2.50782,-18.119141 -1.15352,-2.617135 -3.17098,-4.569258 -5.56836,-5.791015 z m 238.72657,0 h 60.81445 c -0.75568,0.444587 -1.49697,0.976276 -2.16797,1.693359 -1.42747,1.525466 -2.33984,3.802206 -2.33984,6.263672 0,3.516625 1.59592,6.521009 3.26367,9.257813 1.64783,2.704084 3.51733,5.098564 4.64453,6.648437 l 26.33984,38.628905 V 62.09375 c 0,-7.920614 -0.85192,-13.868908 -3.15039,-18.310547 -1.32168,-2.553868 -3.38793,-4.42119 -5.78125,-5.599609 h 25.73828 c -2.39751,1.221664 -4.41641,3.173879 -5.57031,5.791015 -1.962,4.450172 -2.50781,10.279933 -2.50781,18.119141 v 88.94727 c 0,7.83921 0.5459,13.67056 2.50781,18.12109 1.15296,2.61548 3.16927,4.56685 5.56446,5.78906 h -26.46289 c 1.77899,-0.8797 3.40334,-2.00778 4.64062,-3.59179 2.17285,-2.78159 3.19336,-6.45666 3.19336,-10.70313 0,-11.62838 -5.95848,-19.70826 -11.44336,-27.13672 L 553.04688,133.5 492.58398,50.298828 V 151.25977 c 0,7.82556 0.49749,13.63567 2.40235,18.08593 0.95243,2.22512 2.35401,4.15661 4.29687,5.43946 0.27163,0.17934 0.60024,0.23474 0.88672,0.38476 H 476.8418 l 1.65625,-1.5918 c 4.5683,-4.39194 5.35742,-11.64978 5.35742,-22.31835 V 62.09375 c 0,-7.839068 -0.54636,-13.66896 -2.50781,-18.119141 -1.15352,-2.617135 -3.17098,-4.569241 -5.56836,-5.791015 z m -182.85352,7.607422 c -4.20088,0 -10.78337,0.497139 -14.86523,5.375 l -0.0449,0.05469 -0.043,0.05469 c -1.76189,2.296873 -2.0903,4.872611 -2.27149,7.251953 -0.18121,2.379352 -0.0801,4.674913 -0.0801,6.1875 v 36.919926 l 4.38282,-1.31055 c 6.5165,-1.946817 14.23708,-5.18243 20.54492,-10.626954 6.30785,-5.444534 11.14844,-13.353206 11.14844,-23.669922 0,-6.206502 -1.78207,-11.38655 -5.20118,-14.953125 -3.4191,-3.566583 -8.29246,-5.283203 -13.57031,-5.283203 z m 613.39649,3.394531 c -5.27429,0 -13.57402,0.753963 -18.46094,6.59375 l -0.0469,0.05469 -0.043,0.05664 c -2.05712,2.681783 -2.50635,5.849038 -2.73437,8.845703 -0.22802,2.996656 -0.0996,5.934244 -0.0996,7.927734 v 46.412108 l 4.38281,-1.31055 c 8.34132,-2.492 18.20825,-6.6433 26.20703,-13.54687 7.9986,-6.903557 14.07422,-16.816662 14.07422,-29.859375 9e-5,-7.842053 -2.2365,-14.256211 -6.44726,-18.648437 -4.21035,-4.39178 -10.21325,-6.525391 -16.83203,-6.525391 z m -613.39649,0.01172 c 9.14392,0 15.36328,5.684359 15.36328,16.830078 0,18.576169 -16.82387,27.317972 -29.25976,31.033203 V 64.714844 c 0,-3.27815 -0.36522,-8.740761 1.64648,-11.363282 2.74323,-3.27814 8.59236,-4.154296 12.25,-4.154296 z m 109.24414,1.765625 -3.35351,11.958984 -12.76563,45.521485 4.60742,-0.10938 c 7.89754,-0.18875 16.21169,4.11175 23.15039,9.91602 l 8.27149,6.91992 z m 504.1543,1.630859 c 11.82766,0 19.86933,7.348741 19.86914,21.765625 0,24.028127 -21.76196,35.336935 -37.84766,40.142575 V 72.664062 c 0,-4.240272 -0.47322,-11.30702 2.12891,-14.699218 3.54834,-4.240263 11.11855,-5.371094 15.84961,-5.371094 z M 402.0957,63.841797 415.99414,115.63672 c -7.31529,-6.11922 -16.27396,-10.92754 -25.41797,-10.70899 z M 696.1582,210.83398 c -2.37746,3.93378 -6.03528,6.11915 -10.05859,6.11914 -2.74323,0 -5.48928,-0.65492 -8.23242,-1.31054 -9.32699,-2.18544 -14.81138,-3.2793 -28.52735,-3.2793 -27.78354,0 -52.17399,12.75093 -62.30273,39.56445 v 59.5625 c 4.26719,12.51164 11.12536,23.8072 20.05664,31.99805 15.5448,14.2053 34.93101,16.17383 53.76758,16.17383 H 719.75 v -5.46484 c -2.92612,-1.31126 -6.03694,-2.62245 -7.5,-6.11915 -1.82873,-4.1523 -1.64453,-14.42249 -1.64453,-19.23046 v -25.35157 c 0,-11.5828 -1.46297,-24.47738 11.52148,-25.35156 v -5.46289 h -58.70507 v 5.46289 c 12.07001,0.65563 11.1563,12.23864 11.15624,22.94727 v 20.10547 c 0,5.24503 0.18288,12.2387 -2.01171,16.82812 -2.37746,5.24503 -8.0479,7.21094 -12.80274,7.21094 -25.96898,0 -37.48828,-35.18498 -37.48828,-61.41016 0,-27.09938 9.87548,-55.07226 36.02734,-55.07226 17.92236,0 33.09994,14.42268 39.6836,33.87304 l 3.83984,-0.65234 z m -531.11328,0.25977 -7.69922,42.80078 h 4.73242 c 5.62523,-16.74055 17.89673,-25.91089 33.84571,-26.31641 v 102.73047 c 0,16.25641 -2.64672,23.48124 -14.92774,23.70703 v 5.64649 h 68.58594 v -5.64649 C 237.30101,353.78983 234.6582,346.565 234.6582,330.30859 V 227.57812 c 16.58195,1.21325 26.78413,10.05462 33.35157,26.31641 h 5.08984 l -7.22656,-42.80078 z m 649.81446,0.61328 c -2.56025,3.71524 -7.68025,5.24609 -11.3379,5.24609 -3.84043,0 -14.813,-4.58984 -33.46679,-4.58984 -15.91046,0 -46.08594,8.74035 -46.08594,48.07813 0,10.05299 4.20703,20.10392 10.78906,26.44336 5.67089,5.46189 14.26543,9.18022 21.21485,11.80273 l 18.4707,7.20898 c 7.68105,3.05961 18.83789,6.12075 18.83789,18.14063 0,18.13911 -14.26528,21.63672 -26.70117,21.63672 -18.94606,0 -34.55775,-14.41604 -40.57617,-34.87305 h -5.47461 l 3.43945,52.13672 c 2.74313,-3.27815 5.66872,-5.24219 9.875,-5.24219 3.47486,0 8.5936,1.30943 12.06836,2.1836 9.14402,1.9669 16.27867,3.27734 25.60547,3.27734 37.49037,0 60.5332,-16.60853 60.5332,-52.88672 0,-18.35763 -13.71534,-32.99973 -30.35742,-38.90039 l -21.39844,-7.64844 c -6.76655,-2.40398 -18.76323,-5.68522 -19.01953,-16.60937 -0.29247,-12.46563 11.15791,-17.26563 20.11914,-17.26563 12.18101,0 24.35605,9.69836 31.04883,22.15235 h 6.45703 z m -646.9668,2.79492 h 95.10156 l 5.43945,32.20899 c -7.08174,-13.431 -18.00486,-21.39738 -33.52929,-22.53321 l -3.6543,-0.26562 v 106.39648 c 0,8.31293 0.51812,14.64996 3.30078,19.54883 1.78772,3.14729 4.73439,5.21081 8.35547,6.39649 h -55.23437 c 3.62118,-1.18562 6.56739,-3.24924 8.35546,-6.39649 2.7832,-4.89881 3.30469,-11.23578 3.30469,-19.54883 V 224.08203 l -3.49609,0.0898 c -14.4053,0.36626 -26.34751,7.78825 -33.38867,20.61328 z m 602.16015,1.26758 c 9.04637,0 16.19214,1.10752 21.59961,2.22461 5.40776,1.11718 8.58949,2.36719 11.86719,2.36719 2.65267,0 5.73288,-0.64612 8.57422,-2.07422 l 3.03906,30.30273 h -0.77929 c -7.32517,-12.45189 -19.61819,-22.15234 -32.96094,-22.15234 -5.09002,0 -10.83599,1.28765 -15.56836,4.57031 -4.71409,3.26989 -8.11437,8.8973 -7.94727,16.17188 0.15382,6.69629 4.08861,11.47699 8.54102,14.30859 4.46881,2.8421 9.50199,4.29498 12.73437,5.44336 l 21.39844,7.64844 c 15.52437,5.50437 28.08594,19.03078 28.08594,35.6914 0,17.41769 -5.36289,29.43385 -14.97656,37.42774 -9.61358,7.99389 -23.9064,12.05078 -42.14844,12.05078 -9.00609,0 -15.79438,-1.24782 -24.88477,-3.20312 -3.45965,-0.87269 -8.49465,-2.25977 -12.78515,-2.25977 -2.57341,0 -4.8686,0.68217 -6.91211,1.79101 l -2.64453,-40.08203 c 7.21251,19.32856 23.02131,33.08594 42.29296,33.08594 6.53742,0 13.78939,-0.83471 19.79493,-4.51953 6.00555,-3.68482 10.31445,-10.56266 10.31445,-20.52539 0,-7.0641 -3.63784,-12.14337 -7.98047,-15.21289 -4.34273,-3.06952 -9.32937,-4.62733 -13.00586,-6.0918 l -18.52734,-7.23437 c -6.82278,-2.57471 -15.06518,-6.26462 -20.05274,-11.06836 -5.80789,-5.59383 -9.74414,-14.88583 -9.74414,-23.98828 0,-18.79763 6.95641,-29.5417 15.70313,-36.0586 8.74608,-6.51642 19.64151,-8.61328 26.97265,-8.61328 z m -120.71679,0.002 c 13.53122,2.7e-4 18.46731,1.01243 27.75,3.1875 2.7409,0.65519 5.73057,1.40235 9.00976,1.40235 2.65939,0 5.20269,-0.77493 7.44727,-2.14844 l 3.8125,34.40234 c -8.16162,-15.91615 -22.31067,-27.26953 -39.05664,-27.26953 -14.29073,0 -24.64808,7.99796 -30.80274,19.13282 -6.15458,11.13487 -8.63281,25.38411 -8.63281,39.34765 0,13.61152 2.9164,29.35243 9.375,42.08203 6.4586,12.72961 17.00012,22.73633 31.52344,22.73633 5.68427,0 12.792,-2.39834 15.88672,-9.17969 2.79164,-5.86573 2.33398,-13.11001 2.33398,-18.26757 V 301.0918 c 0,-5.25742 0.3458,-11.02416 -1.19336,-16.21289 -0.76967,-2.59436 -2.10754,-5.11736 -4.35351,-6.99219 -0.91599,-0.76461 -2.04037,-1.30399 -3.19922,-1.79688 h 47.02734 c -1.37455,0.58013 -2.65091,1.28487 -3.69336,2.21875 -2.31638,2.07499 -3.63284,4.81608 -4.37304,7.63086 -1.48041,5.62957 -1.00391,11.90876 -1.00391,17.55664 v 25.35157 c 0,2.36053 -0.0471,6.19876 0.14258,10.02929 0.18913,3.81941 0.44641,7.48913 1.78515,10.54688 1.60472,3.80274 4.5784,5.53251 7.2168,6.80859 v 0.0215 h -55.48047 c -18.59765,0 -36.84639,-1.92114 -51.46484,-15.27735 -8.31074,-7.62313 -14.82809,-18.27216 -18.94727,-30.13086 v -58.18164 c 9.72334,-25.11111 32.32665,-36.89311 58.89063,-36.89258 z m -379.02344,0.0879 v 5.46289 c 7.49808,-0.21854 10.06055,6.55548 10.06055,21.85351 v 89.16797 c 0,15.29803 -2.56247,22.07206 -10.06055,21.85352 v 5.46289 h 58.33984 v -5.46289 c -8.22969,-0.2186 -10.78906,-6.77507 -10.78906,-22.94727 v -61.84766 h 36.39258 V 331.25 c 0,16.1722 -2.56142,22.72872 -10.79102,22.94727 v 5.46289 h 58.33985 v -5.46289 c -7.49808,0.21854 -10.06055,-6.55549 -10.06055,-21.85352 v -89.16797 c 0,-15.29803 2.56247,-22.07205 10.06055,-21.85351 v -5.46289 h -58.33985 v 5.46289 c 7.49807,-0.21854 10.79102,6.55548 10.79102,21.85351 v 11.80274 h -36.39258 v -11.80274 c 0,-15.29803 3.29089,-22.07205 10.78906,-21.85351 v -5.46289 z m 139.67188,0 v 5.46289 c 7.49806,-0.21854 10.05664,6.55548 10.05664,21.85351 v 89.16797 c 0,15.29803 -2.55858,22.07206 -10.05664,21.85352 v 5.46289 h 57.60742 v -5.46289 c -7.49808,0.21854 -10.0586,-6.55549 -10.0586,-21.85352 v -89.16797 c 0,-15.29803 2.56052,-22.07205 10.0586,-21.85351 v -5.46289 z m 63.55664,0 v 5.46289 c 7.49808,-0.21854 10.05664,6.55548 10.05664,21.85351 v 89.16797 c 0,15.29803 -2.55856,22.07206 -10.05664,21.85352 v 5.46289 h 35.47851 v -5.46289 c -7.49807,0.21854 -9.87695,-6.55549 -9.87695,-21.85352 v -90.47852 l 54.3164,74.74219 c 5.48637,7.43047 10.78907,14.64274 10.78907,25.13281 0,7.43047 -3.47404,11.36432 -9.32617,12.45704 v 5.24414 h 36.75976 v -5.46289 c -7.49808,0.21855 -10.05859,-6.55548 -10.05859,-21.85352 v -88.94922 c 0,-15.29803 2.56051,-22.07205 10.05859,-21.85351 v -5.46289 h -36.75976 v 5.46289 c 7.49806,-0.21854 11.15429,6.55548 11.15429,21.85351 v 27.53711 l -20.11523,-29.50391 c -2.37747,-3.27815 -7.31641,-9.39496 -7.31641,-13.98437 0,-3.4967 2.19549,-5.02816 4.75586,-5.90234 v -5.46289 z m -197.83399,3.4082 h 47.38867 c -2.39214,1.19241 -4.44092,3.08629 -5.70703,5.66015 -2.18701,4.44596 -2.93357,10.35462 -2.93359,18.24805 v 15.21094 h 43.20898 v -15.21094 c 0,-7.89343 -0.74853,-13.8021 -2.93554,-18.24805 -1.26611,-2.57386 -3.31491,-4.46774 -5.70704,-5.66015 h 47.38868 c -2.39518,1.22198 -4.41141,3.17378 -5.56446,5.78906 -1.96201,4.45018 -2.50781,10.27993 -2.50781,18.11914 v 89.16797 c 0,7.83921 0.5458,13.66896 2.50781,18.11914 1.15305,2.61527 3.16928,4.56708 5.56446,5.78906 h -47.57422 c 2.67535,-1.25107 4.92321,-3.29073 6.21289,-6.14062 2.07594,-4.58736 2.61523,-10.5954 2.61523,-18.86133 V 265.99414 H 314.45508 V 331.25 c 10e-6,8.26593 0.53539,14.27397 2.61133,18.86133 1.28968,2.84989 3.53949,4.88955 6.21484,6.14062 h -47.57422 c 2.39518,-1.22198 4.41337,-3.17379 5.56641,-5.78906 1.96201,-4.45018 2.50781,-10.27993 2.50781,-18.11914 v -89.16797 c 0,-7.8392 -0.5458,-13.66896 -2.50781,-18.11914 -1.15304,-2.61528 -3.17123,-4.56708 -5.56641,-5.78906 z m 139.67188,0 h 46.8164 c -2.39508,1.22207 -4.40979,3.17378 -5.5625,5.78906 -1.96145,4.45018 -2.50781,10.28007 -2.50781,18.11914 v 89.16797 c 0,7.83908 0.54636,13.66895 2.50781,18.11914 1.15271,2.61528 3.16742,4.56699 5.5625,5.78906 h -46.8164 c 2.39506,-1.22207 4.40979,-3.17378 5.5625,-5.78906 1.96146,-4.45019 2.50781,-10.28006 2.50781,-18.11914 v -89.16797 c 0,-7.83907 -0.54635,-13.66896 -2.50781,-18.11914 -1.15271,-2.61528 -3.16743,-4.56699 -5.5625,-5.78906 z m 63.55664,0 h 60.80859 c -0.75576,0.44486 -1.49905,0.97608 -2.16992,1.69336 -1.42718,1.5259 -2.33594,3.80219 -2.33594,6.26367 0,3.5166 1.59589,6.51951 3.26367,9.25586 1.64656,2.70153 3.51909,5.10446 4.64649,6.6543 l 26.33594,38.625 v -38.58399 c 0,-7.92047 -0.84857,-13.86888 -3.14649,-18.31055 -1.32055,-2.55258 -3.3857,-4.41895 -5.77734,-5.59765 h 25.72656 c -2.395,1.22208 -4.40981,3.17378 -5.5625,5.78906 -1.96144,4.45018 -2.50977,10.28008 -2.50977,18.11914 V 332.125 c 0,7.83908 0.54833,13.66897 2.50977,18.11914 1.15269,2.61529 3.1675,4.56698 5.5625,5.78906 h -26.45508 c 1.77668,-0.8796 3.39693,-2.00725 4.63281,-3.58984 2.17229,-2.78173 3.19141,-6.45692 3.19141,-10.70313 0,-11.62798 -5.95439,-19.70798 -11.43945,-27.13671 l -0.0156,-0.0195 -60.46679,-83.20312 v 100.96289 c 0,7.82556 0.49749,13.63568 2.40234,18.08594 0.95244,2.22513 2.35401,4.1566 4.29687,5.43945 0.27048,0.17859 0.59956,0.2333 0.88477,0.38281 h -24.38281 c 2.39506,-1.22207 4.4098,-3.17378 5.5625,-5.78906 1.96146,-4.45019 2.50781,-10.28006 2.50781,-18.11914 v -89.16797 c 0,-7.83906 -0.54635,-13.66896 -2.50781,-18.11914 -1.1527,-2.61528 -3.16744,-4.56699 -5.5625,-5.78906 z M 0,238.41992 v 13.08203 h 148.10352 v -13.08203 z m 827.07812,0 v 13.08203 H 1000 V 238.41992 Z M 3.4082031,241.82812 H 144.69727 v 6.26563 H 3.4082031 Z m 827.0781269,0 H 996.5918 v 6.26563 H 830.48633 Z"
   sodipodi:nodetypes="ccccccccccssccsscccscssccssccsssssccssssccssscscccssssscccssscscscccscccssccccsscsssccccsccssccsccccsscscccccscsscccccccsccccscccccccssccccsccsccccccscccscsccssssscssssccssssccccscccsccssccccsccsccccscccsccccsccsccccssccccsccsccccssccsccccscccccsccccccccssccssccccccsssscssccccsscsssscccscsssscssccccsccccsccccssscccssccccsssscccccscccccccccccsssccssssssccccccscccccssccssscccssccsssscccsssccssccssssccsscccssscccssscscccssccssssscccssccsssssscscscccccccsccscscccccscscccscccssccccsscssscccccccsccccsccccccssscccsscccscssccssccccccccssccssccccssscccssssccssscsccsssscccsssscsccssssscssssccssssscccscccsccssccccsccsccccssccccsccscccccssccccsscccccssccccsccsccccssccccsccscccccssccssccssssccssccssccsssscccssssccsssscccsssccssccssssccsscccsssccssssccccccccccccccccccccc" /></svg>
