<?xml version="1.0" standalone="no"?>
<!DOCTYPE svg PUBLIC "-//W3C//DTD SVG 20010904//EN"
 "http://www.w3.org/TR/2001/REC-SVG-20010904/DTD/svg10.dtd">
<svg version="1.0" xmlns="http://www.w3.org/2000/svg"
 width="500.000000pt" height="499.000000pt" viewBox="0 0 500.000000 499.000000"
 preserveAspectRatio="xMidYMid meet">

<g transform="translate(0.000000,499.000000) scale(0.100000,-0.100000)"
fill="#000000" stroke="none">
<path d="M2295 4923 c-80 -7 -243 -35 -360 -63 -297 -71 -563 -191 -820 -371
-88 -61 -182 -122 -210 -135 -62 -28 -55 -29 40 -4 40 11 105 23 144 26 139
13 192 -30 379 -311 172 -258 251 -372 302 -439 149 -195 220 -312 220 -367 0
-29 -12 -53 -57 -115 -53 -72 -58 -83 -57 -129 0 -33 9 -67 27 -102 l27 -53
-34 0 c-26 0 -42 -8 -65 -32 -29 -31 -30 -31 -55 -14 -16 10 -24 22 -20 29 4
7 4 9 0 5 -5 -4 -17 1 -27 11 -55 51 -229 74 -349 46 -41 -9 -87 -19 -102 -21
-16 -2 -57 -8 -94 -14 -74 -12 -161 -1 -229 29 -38 17 -118 96 -115 114 1 5
-6 14 -14 20 -9 7 -26 33 -39 59 -13 26 -26 47 -28 45 -2 -1 -3 0 -2 2 1 1
-11 21 -27 43 -17 22 -27 44 -24 49 3 5 0 9 -5 9 -6 0 -11 5 -11 11 0 5 4 8 9
4 6 -3 8 6 5 20 -4 25 -38 86 -99 180 -159 248 -185 284 -198 279 -17 -6 -51
42 -41 58 4 6 3 8 -4 4 -6 -3 -17 8 -26 25 -22 45 -19 49 10 14 24 -29 24 -28
-5 31 -17 34 -35 82 -42 107 -15 60 5 101 68 144 49 33 179 96 266 128 26 10
45 20 43 22 -9 10 -264 -100 -316 -136 -62 -43 -100 -99 -100 -151 0 -43 27
-118 67 -186 l30 -50 -59 -120 c-79 -161 -140 -315 -182 -459 -169 -590 -108
-1220 171 -1769 71 -140 100 -187 185 -307 238 -337 545 -604 908 -792 238
-123 461 -197 740 -244 134 -23 184 -26 375 -27 235 0 350 12 558 60 790 181
1443 734 1750 1484 244 594 249 1249 15 1840 -30 77 -134 290 -169 347 -18 29
-19 34 -4 68 8 21 12 42 8 48 -3 5 -1 7 5 4 6 -4 17 15 27 47 44 140 -18 196
-360 330 -157 61 -179 72 -285 152 -168 127 -263 187 -417 263 -272 135 -562
221 -848 251 -84 9 -390 11 -480 3z m525 -78 c362 -53 657 -157 950 -333 90
-54 140 -91 140 -103 0 -5 -19 -9 -43 -9 -41 0 -119 31 -177 70 -51 35 -218
118 -310 155 -100 40 -125 48 -205 70 -143 39 -183 48 -335 70 -401 60 -803
12 -1176 -139 -118 -48 -397 -192 -441 -228 -14 -11 -83 8 -83 22 0 14 154
112 270 174 260 136 503 209 860 255 108 14 445 12 550 -4z m-5 -140 c188 -23
365 -71 572 -153 90 -37 287 -139 305 -159 17 -19 17 -21 -6 -42 l-24 -23 -84
49 c-45 27 -137 72 -203 100 -290 124 -530 173 -845 173 -405 0 -771 -100
-1106 -301 -45 -27 -86 -49 -91 -49 -5 0 -20 11 -32 24 l-23 24 49 37 c66 49
306 166 433 210 140 48 331 94 460 110 149 18 451 18 595 0z m45 -151 c169
-27 316 -67 450 -121 121 -49 303 -151 297 -167 -3 -6 -46 -70 -97 -141 -51
-72 -144 -209 -207 -305 -64 -96 -119 -179 -123 -183 -4 -4 -51 8 -106 27
-201 71 -344 96 -564 96 -214 0 -360 -27 -579 -108 l-124 -46 -26 34 c-14 18
-113 160 -219 314 l-193 281 32 27 c17 14 84 54 149 87 406 210 854 280 1310
205z m1177 -208 c39 -13 86 -31 105 -39 18 -9 76 -30 128 -47 132 -43 310
-130 353 -172 63 -62 60 -100 -20 -255 -23 -46 -41 -83 -38 -83 2 0 20 24 40
52 54 82 41 45 -21 -59 -57 -93 -98 -132 -51 -48 14 25 24 45 22 45 -5 0 -146
-216 -210 -320 -98 -160 -96 -158 -84 -166 8 -4 9 -3 5 4 -4 7 -3 12 3 12 6 0
19 17 30 38 11 21 27 44 35 51 9 7 13 17 11 22 -3 4 3 17 14 28 10 10 22 28
26 40 3 12 17 33 29 49 13 15 23 29 23 32 0 7 64 120 68 120 12 0 13 -20 2
-32 -7 -7 -26 -37 -42 -65 -15 -29 -32 -53 -37 -53 -5 0 -7 -4 -4 -8 7 -11
-50 -93 -59 -84 -5 4 -5 2 -2 -4 3 -6 -14 -42 -38 -79 -25 -37 -45 -70 -45
-73 0 -10 -113 -206 -126 -219 -21 -22 -24 -1 -3 28 11 16 17 29 13 29 -3 0
-2 6 3 13 6 6 13 20 16 30 12 33 -11 7 -42 -47 -71 -126 -148 -176 -273 -176
-40 0 -102 6 -138 14 -36 8 -98 21 -138 30 -127 28 -220 18 -319 -32 -50 -26
-69 -47 -49 -55 8 -3 16 -3 18 1 2 4 34 23 73 42 65 33 75 35 160 34 56 -1
126 -10 180 -24 50 -12 124 -24 165 -26 41 -3 81 -7 88 -9 6 -2 12 1 12 7 0 6
11 8 30 4 18 -3 29 -2 25 3 -3 5 8 12 24 16 16 3 32 13 35 22 4 9 9 13 13 10
3 -4 14 3 24 14 16 19 35 14 21 -7 -14 -18 -89 -65 -123 -74 -56 -17 -273 -3
-289 18 -3 4 -18 8 -35 9 -16 1 -69 5 -117 9 -131 10 -235 -16 -303 -76 -31
-28 -72 -34 -78 -11 -3 11 -22 23 -51 32 -50 15 -51 20 -19 83 8 15 17 52 20
81 5 49 3 55 -27 86 -53 56 -90 116 -90 147 0 63 33 119 264 446 54 76 164
236 244 355 167 246 210 295 273 310 67 16 194 5 276 -23z m-3613 -650 c-1 -9
5 -16 13 -16 8 0 11 -4 8 -10 -3 -5 -1 -10 5 -10 6 0 8 -4 5 -10 -3 -5 -2 -10
3 -10 11 0 25 -30 18 -37 -4 -5 -76 100 -76 111 0 4 6 6 13 3 6 -2 11 -12 11
-21z m4206 -38 c16 -29 59 -120 94 -203 90 -212 125 -320 151 -465 9 -47 20
-107 25 -135 5 -27 14 -124 20 -215 13 -183 -1 -387 -39 -590 -84 -447 -312
-883 -641 -1224 -334 -346 -833 -613 -1303 -697 -315 -56 -674 -48 -962 20
-22 6 -60 14 -85 20 -81 17 -254 78 -369 130 -494 221 -903 608 -1157 1096
-76 145 -142 311 -188 473 -77 271 -105 620 -71 892 17 140 32 234 44 280 26
100 52 191 69 240 46 133 166 390 181 390 14 -1 43 -53 38 -68 -3 -9 -31 -75
-62 -146 -94 -216 -152 -410 -187 -626 -16 -104 -16 -541 1 -655 73 -499 307
-959 672 -1325 634 -634 1541 -850 2384 -568 470 157 908 490 1194 908 264
387 402 834 404 1310 2 380 -63 663 -229 1009 -35 73 -64 137 -64 142 0 15 31
59 41 59 5 0 22 -24 39 -52z m-1952 30 c37 -9 42 -13 26 -19 -22 -9 -470 -12
-461 -3 11 11 191 31 290 33 54 0 119 -4 145 -11z m126 -4 c25 -9 19 -24 -9
-24 -16 0 -25 6 -25 15 0 16 9 19 34 9z m-325 -57 c25 -21 31 -55 19 -107
l-11 -50 -186 -1 c-102 -1 -176 -4 -164 -6 29 -6 73 -58 73 -88 0 -39 -18 -75
-44 -87 -14 -6 -23 -15 -20 -19 3 -5 85 -9 182 -9 97 0 182 -4 189 -8 19 -12
33 -60 33 -113 l0 -49 -239 0 -239 0 -16 25 c-12 18 -16 42 -14 77 3 54 9 61
63 75 26 6 22 8 -30 13 l-60 5 -39 78 c-21 42 -37 80 -34 83 3 3 43 9 89 13
46 5 74 9 61 10 -13 0 -34 12 -47 26 -20 19 -25 34 -25 73 l0 49 53 11 c28 7
68 14 87 16 64 7 305 -6 319 -17z m490 2 c19 -7 31 -18 32 -30 1 -10 2 -25 3
-31 1 -7 -1 -34 -5 -60 -4 -35 -2 -48 7 -48 27 0 23 -22 -17 -105 -42 -84 -42
-85 -80 -85 -21 0 -61 5 -89 11 -58 12 -75 37 -65 93 13 66 52 88 141 79 42
-5 55 -3 50 5 -5 9 -65 12 -199 12 -106 0 -197 4 -204 8 -7 4 -15 34 -19 65
-6 47 -4 61 11 77 17 19 31 20 210 20 114 0 205 -4 224 -11z m-969 -83 c0 -59
-14 -79 -58 -81 -30 -2 -97 59 -86 77 8 13 104 57 127 57 14 1 17 -8 17 -53z
m1113 35 c12 -12 -19 -68 -46 -85 -24 -15 -37 6 -37 63 l0 44 37 -6 c20 -4 41
-11 46 -16z m-2608 -9 c-3 -3 -11 0 -18 7 -9 10 -8 11 6 5 10 -3 15 -9 12 -12z
m4053 -95 c83 -169 133 -315 177 -512 41 -184 48 -270 42 -519 -4 -209 -8
-244 -35 -371 -50 -230 -111 -401 -213 -605 -213 -422 -576 -782 -1004 -996
-219 -110 -357 -157 -615 -211 -129 -26 -148 -28 -405 -27 -241 0 -282 2 -380
22 -270 56 -421 106 -637 214 -274 137 -520 331 -721 571 -295 350 -468 756
-527 1239 -20 159 -8 444 24 608 50 252 148 538 210 615 16 20 16 20 40 -9
l25 -29 -28 -56 c-78 -156 -146 -375 -179 -581 -23 -145 -23 -513 1 -660 62
-396 224 -753 482 -1065 322 -389 770 -662 1245 -759 223 -45 451 -56 677 -31
184 21 301 46 463 101 708 239 1246 815 1433 1535 55 213 71 337 71 569 -1
348 -50 563 -206 902 l-40 87 22 30 c12 17 25 29 29 27 4 -3 26 -43 49 -89z
m-4010 23 c11 -8 122 -178 122 -186 0 -4 7 -16 17 -26 9 -10 12 -18 6 -18 -10
0 -58 65 -62 85 -1 6 -9 14 -17 18 -8 5 -12 12 -9 17 3 4 -2 10 -10 14 -8 3
-15 10 -15 15 0 6 -16 35 -35 65 -19 29 -31 57 -27 60 3 4 10 -3 15 -16 4 -12
11 -25 15 -28z m2179 -81 c16 -44 16 -112 1 -127 -17 -17 -419 -16 -468 1 -35
12 -35 12 -35 72 0 58 1 60 35 78 31 16 58 17 245 14 l210 -4 12 -34z m1723
-49 c73 -144 128 -323 166 -535 14 -76 18 -153 18 -325 0 -172 -4 -249 -18
-325 -82 -463 -272 -845 -575 -1158 -312 -322 -679 -524 -1134 -622 -167 -35
-463 -45 -657 -20 -149 18 -165 22 -290 57 -283 79 -507 190 -739 363 -525
393 -851 1042 -851 1695 0 116 17 299 36 389 31 146 88 327 135 427 30 64 32
65 49 48 10 -11 46 -68 81 -129 149 -262 224 -351 322 -379 31 -9 57 -19 57
-22 0 -2 -17 -39 -38 -82 -96 -192 -161 -511 -162 -789 l0 -73 -40 -20 c-31
-16 -40 -27 -46 -56 -8 -42 0 -112 15 -127 22 -22 128 -26 729 -26 342 -1 622
-4 622 -7 0 -4 -20 -34 -43 -68 -24 -33 -66 -92 -92 -131 -27 -38 -94 -131
-151 -206 -112 -149 -134 -186 -134 -223 0 -29 37 -62 82 -71 44 -10 63 12
326 380 l229 320 129 2 129 3 73 -108 c41 -59 98 -141 128 -182 31 -41 94
-131 142 -199 90 -128 161 -215 192 -231 22 -12 93 23 107 53 13 29 5 51 -59
144 -48 73 -233 328 -262 364 -29 35 -96 139 -96 148 0 6 247 11 706 13 815 3
734 -9 734 114 0 70 -1 74 -30 90 -34 20 -33 16 -49 254 -16 236 -68 438 -161
638 -22 47 -40 90 -40 97 0 7 12 18 28 24 31 13 90 66 126 114 13 18 70 111
126 207 101 172 137 230 146 230 2 0 17 -27 34 -60z m-1479 -170 c10 -30 19
-66 19 -81 l0 -28 -162 -3 c-90 -2 -177 -1 -195 0 -65 8 -89 63 -62 141 l11
31 185 -2 185 -3 19 -55z m-965 -93 c-13 -18 -22 -22 -51 -19 l-35 4 34 42
c18 22 40 52 47 66 14 24 14 24 17 -22 2 -30 -3 -56 -12 -71z m145 -37 l46 0
6 -72 c5 -70 23 -134 66 -246 22 -56 24 -52 -23 -66 -10 -3 -23 24 -46 97 -18
56 -45 130 -60 164 l-28 62 -59 -15 c-32 -9 -75 -26 -95 -40 -21 -13 -40 -24
-42 -24 -6 0 -26 70 -26 90 0 8 4 21 9 28 11 18 94 32 156 26 28 -2 71 -4 96
-4z m399 -117 c0 -125 -12 -203 -30 -203 -22 0 -30 48 -30 184 l0 146 30 0 30
0 0 -127z m518 115 c16 -16 15 -50 -2 -74 -13 -17 -17 -18 -48 -5 -51 21 -87
25 -103 11 -8 -7 -34 -72 -56 -144 -47 -151 -60 -176 -84 -156 -19 16 -17 31
37 200 l40 124 -26 21 c-14 11 -26 24 -26 28 0 13 255 8 268 -5z m1057 -78
c-24 -27 -39 -15 -18 15 11 14 22 20 27 14 6 -5 2 -16 -9 -29z m-2610 -100 c4
-6 -12 -10 -42 -9 -36 0 -43 3 -28 9 28 12 63 12 70 0z m2060 0 c28 -12 9 -14
-105 -11 -27 0 -50 6 -50 11 0 12 127 12 155 0z m-1891 -41 c31 -11 59 -25 62
-31 6 -9 -32 -48 -101 -103 -28 -22 -35 -23 -103 -15 -41 4 -79 13 -84 18 -6
6 -13 33 -16 60 -4 41 -1 53 17 71 29 29 147 30 225 0z m1837 -1 c12 -19 11
-89 -2 -127 -10 -27 -15 -31 -49 -31 -29 0 -51 10 -96 44 -33 24 -72 57 -87
74 l-29 30 34 10 c62 20 73 21 147 17 47 -2 77 -9 82 -17z m271 2 c54 -6 104
-10 112 -10 13 0 86 -124 86 -145 0 -10 -330 -5 -379 7 -47 11 -51 14 -57 47
-3 20 -7 41 -8 46 -11 36 56 77 114 69 19 -2 79 -9 132 -14z m-2394 -6 c25
-18 29 -70 8 -119 l-12 -29 -140 2 c-76 2 -147 5 -156 8 -23 7 -23 25 3 84 21
49 21 49 77 55 32 3 64 8 72 9 45 10 128 5 148 -10z m1697 -8 c33 -14 49 -46
23 -46 -6 0 -9 -3 -5 -6 3 -4 -2 -14 -11 -23 -10 -9 -11 -11 -3 -6 12 8 13 7
6 -5 -42 -70 -116 -165 -127 -162 -5 1 -7 -2 -3 -8 8 -13 -34 -82 -46 -75 -5
4 -6 0 -3 -8 3 -8 -10 -30 -29 -51 -19 -20 -33 -36 -31 -36 3 0 -8 -18 -22
-40 -15 -22 -30 -37 -35 -35 -4 3 -11 0 -15 -6 -5 -8 -3 -9 6 -4 8 5 11 3 8
-6 -3 -8 -11 -13 -17 -11 -7 1 -10 -2 -7 -7 3 -5 -4 -22 -16 -37 -35 -45 -45
-54 -53 -46 -5 4 -5 1 -1 -5 9 -16 -33 -75 -47 -66 -6 3 -7 1 -3 -6 4 -6 -6
-28 -23 -50 -17 -21 -31 -42 -31 -46 0 -13 -28 -34 -35 -27 -5 4 -5 1 -1 -6 5
-8 -10 -32 -39 -65 -26 -28 -51 -62 -56 -75 -5 -14 -14 -20 -21 -16 -7 4 -8 3
-4 -5 7 -11 -81 -131 -97 -131 -5 0 -5 -4 -2 -10 3 -5 1 -10 -4 -10 -6 0 -11
-6 -11 -12 0 -7 -13 -26 -28 -43 -15 -16 -31 -38 -35 -48 -4 -10 -11 -15 -17
-12 -6 3 -7 -1 -4 -9 3 -9 2 -16 -4 -16 -6 0 -12 5 -14 12 -3 7 -7 5 -11 -6
-4 -10 -3 -15 3 -11 15 9 12 -8 -6 -33 -10 -15 -22 -21 -33 -17 -12 5 -13 3
-4 -5 8 -9 -1 -29 -37 -84 -27 -39 -64 -86 -82 -105 -18 -19 -26 -31 -18 -26
12 6 -19 -33 -50 -65 -3 -3 -14 -22 -25 -43 -11 -21 -40 -59 -63 -84 -24 -25
-38 -42 -30 -37 11 6 11 5 -1 -9 -7 -9 -18 -14 -24 -10 -5 3 -7 2 -4 -4 4 -6
0 -19 -8 -29 -11 -15 -15 -16 -16 -4 -1 8 -1 18 -1 21 1 3 -5 6 -13 6 -17 0
-28 -24 -15 -32 13 -8 13 -25 1 -25 -5 0 -17 7 -25 16 -9 8 -16 12 -16 7 0 -4
-8 3 -17 17 -13 18 -14 25 -4 28 11 4 11 6 1 12 -9 6 4 32 49 94 34 47 68 91
75 98 6 7 31 40 54 73 22 33 105 148 183 255 77 107 155 215 173 239 50 70
122 170 182 251 146 199 308 420 336 460 18 25 63 88 102 140 159 217 141 201
201 176z m-1125 -43 c26 -27 94 -116 151 -200 57 -84 152 -219 210 -300 150
-209 139 -183 95 -237 -37 -45 -64 -61 -52 -30 3 8 2 12 -4 9 -15 -9 -91 101
-84 122 4 13 3 14 -3 5 -12 -15 -19 -8 -96 108 -56 84 -70 103 -177 250 -30
41 -54 78 -52 82 1 5 -2 8 -8 8 -14 0 -65 92 -61 110 1 8 0 12 -4 8 -12 -12
-34 16 -24 29 7 7 6 14 -2 19 -8 4 -9 3 -5 -4 4 -7 3 -12 -3 -12 -46 0 13 76
63 79 4 1 30 -20 56 -46z m1230 -12 c0 -12 -53 -109 -96 -178 -22 -35 -41 -53
-53 -53 -32 0 -33 17 -5 62 78 124 154 207 154 169z m-2065 -121 c22 -42 19
-82 -10 -124 l-24 -36 102 0 c137 0 267 -11 267 -22 0 -5 -14 -43 -31 -84
l-31 -74 -207 0 -208 0 -11 39 c-15 48 -15 70 -1 110 10 29 14 31 62 33 l52 2
-47 3 c-27 2 -48 8 -48 12 0 10 47 148 55 161 3 5 19 10 35 10 23 0 33 -7 45
-30z m291 20 c141 0 174 -3 174 -14 0 -7 -7 -19 -15 -26 -8 -7 -15 -18 -14
-24 0 -6 34 -38 76 -71 81 -64 173 -153 173 -167 0 -31 -101 22 -219 116 l-73
58 -22 -21 c-21 -19 -34 -21 -169 -21 -139 0 -147 1 -161 22 -21 29 -20 107 0
137 13 18 23 22 47 17 16 -3 108 -6 203 -6z m2396 -30 c30 -37 33 -70 12 -109
l-19 -35 -130 3 c-109 2 -133 5 -150 21 -20 17 -23 16 -150 -80 -120 -91 -131
-97 -147 -83 -10 9 -18 19 -18 22 0 3 22 22 48 41 67 50 90 69 150 125 54 50
57 59 37 109 -8 18 -2 19 170 14 171 -5 179 -6 197 -28z m198 -27 c41 -108 42
-112 14 -119 -42 -11 -134 6 -156 28 -17 17 -19 28 -13 77 4 31 9 59 12 64 2
4 31 7 63 7 l59 0 21 -57z m59 -184 c10 -25 21 -62 24 -82 l6 -37 -229 0 -230
0 -20 40 c-23 45 -25 68 -8 105 l11 25 215 -2 214 -3 17 -46z m-2896 -151 c48
-18 61 -72 32 -128 l-16 -30 -134 0 c-156 0 -152 -3 -138 105 l8 60 65 5 c77
7 144 2 183 -12z m262 -28 c39 -21 107 -48 152 -60 85 -23 130 -53 103 -70
-19 -12 -55 -4 -178 36 -57 19 -112 34 -123 34 -13 0 -24 -13 -35 -40 -15 -37
-19 -40 -54 -40 -46 0 -56 11 -65 73 -6 36 -3 53 9 73 36 54 83 52 191 -6z
m2420 14 c24 -22 27 -31 22 -67 -3 -23 -9 -51 -12 -63 -6 -19 -1 -22 69 -33
41 -7 80 -19 87 -27 14 -17 6 -109 -12 -130 -9 -11 -44 -14 -155 -14 l-143 0
-5 53 c-4 28 -8 70 -10 92 -5 50 -31 114 -49 121 -8 3 -78 -16 -156 -42 -119
-40 -144 -45 -152 -33 -17 28 -8 38 49 54 117 33 246 86 258 107 3 4 45 8 93
8 81 0 90 -2 116 -26z m252 9 c4 -9 7 -46 7 -82 l1 -66 -50 -3 c-73 -5 -129 6
-155 30 -18 17 -21 27 -16 60 12 73 20 78 119 78 73 0 89 -3 94 -17z m-3145
-176 c9 -7 20 -25 23 -40 10 -37 25 -44 25 -13 0 14 10 36 21 47 20 20 29 21
103 15 44 -3 109 -6 143 -6 l62 0 -5 -77 c-10 -128 -56 -117 493 -121 257 -2
469 -5 471 -7 2 -2 -6 -13 -18 -25 l-23 -23 -675 7 c-371 3 -677 8 -679 10 -2
2 -4 43 -5 92 -1 66 3 97 16 122 18 35 23 37 48 19z m3160 -14 c14 -17 14
-131 0 -145 -10 -10 -51 6 -64 26 -11 16 -10 79 3 113 11 33 36 35 61 6z
m-1462 -262 c76 -110 303 -425 463 -644 48 -65 87 -123 87 -128 0 -5 -18 -18
-40 -29 -23 -12 -43 -27 -46 -35 -5 -11 -10 -11 -26 5 -12 11 -17 24 -13 31 5
8 4 10 -3 5 -7 -4 -26 16 -49 51 -21 32 -41 59 -45 61 -5 2 -4 12 2 21 6 13 5
18 -5 18 -8 0 -12 -5 -9 -11 3 -6 -2 -2 -10 8 -12 15 -13 23 -4 35 10 13 10
14 -2 4 -16 -14 -40 0 -40 23 0 8 -4 14 -8 14 -4 0 -16 15 -27 33 -18 30 -67
99 -101 140 -8 10 -11 23 -8 30 4 7 4 9 -1 5 -7 -6 -60 48 -60 62 0 4 -8 14
-18 24 -9 10 -14 22 -11 28 4 7 2 8 -4 4 -7 -4 -12 -1 -12 9 0 9 -4 14 -8 11
-5 -3 -15 7 -23 22 -8 15 -16 29 -20 32 -3 3 -13 16 -22 29 -13 20 -14 28 -4
40 10 14 10 14 -4 3 -15 -11 -20 -8 -40 25 -13 21 -23 41 -21 46 1 4 -2 7 -6
7 -5 0 -14 11 -20 24 -11 24 3 55 51 114 13 17 15 14 107 -117z m1457 73 c15
-39 6 -39 -732 -38 -717 2 -745 3 -745 35 0 14 58 16 768 17 629 2 703 0 709
-14z m-919 -917 c-15 -13 -24 -15 -32 -7 -8 8 -4 17 13 31 19 16 26 17 33 7 5
-8 0 -19 -14 -31z"/>
<path d="M3316 3113 c-7 -59 -37 -122 -93 -193 l-28 -34 31 22 c17 12 42 33
55 48 13 14 31 33 39 43 8 9 15 21 15 26 0 6 6 32 14 58 13 45 13 50 -6 69
l-20 20 -7 -59z"/>
<path d="M3215 3132 c-43 -40 -75 -82 -75 -101 0 -12 6 -10 20 9 30 37 90 120
87 120 -1 0 -15 -13 -32 -28z"/>
<path d="M2253 2195 c0 -8 4 -12 9 -9 5 3 6 10 3 15 -9 13 -12 11 -12 -6z"/>
<path d="M3727 2123 c-3 -5 16 -7 41 -5 80 5 90 9 25 11 -34 0 -64 -2 -66 -6z"/>
<path d="M983 1971 c-12 -21 -19 -41 -16 -45 11 -11 333 -7 333 4 0 6 -47 10
-120 10 -107 0 -122 2 -140 20 -11 11 -20 27 -20 35 0 26 -14 17 -37 -24z"/>
<path d="M820 4320 c-8 -5 -10 -10 -5 -10 6 0 17 5 25 10 8 5 11 10 5 10 -5 0
-17 -5 -25 -10z"/>
<path d="M760 3169 c0 -6 8 -23 18 -37 10 -15 24 -40 32 -57 8 -16 24 -38 35
-47 11 -10 17 -17 12 -18 -17 0 57 -69 93 -85 22 -10 40 -21 40 -25 0 -17 246
-3 334 19 53 14 123 23 175 24 81 1 91 -2 166 -38 90 -44 106 -49 99 -30 -9
22 -115 73 -181 86 -66 14 -122 7 -333 -36 -106 -21 -198 -19 -264 6 -64 23
-121 82 -181 185 -38 65 -45 73 -45 53z"/>
<path d="M1626 3144 c-12 -32 -5 -77 19 -118 14 -24 23 -46 20 -49 -3 -4 -2
-5 1 -2 4 2 15 -7 26 -21 11 -13 34 -32 50 -40 31 -16 31 -16 -9 32 -53 64
-73 104 -80 165 -6 50 -16 62 -27 33z"/>
<path d="M1755 3108 c75 -82 80 -86 59 -50 -30 53 -74 102 -91 102 -10 0 1
-19 32 -52z"/>
</g>
</svg>
